<?xml version="1.0" encoding="utf-8"?>
<!-- Generator: Adobe Illustrator 21.1.0, SVG Export Plug-In . SVG Version: 6.00 Build 0)  -->
<svg version="1.1" id="Calque_1" xmlns="http://www.w3.org/2000/svg" xmlns:xlink="http://www.w3.org/1999/xlink" x="0px" y="0px"
	 viewBox="0 0 432 432" style="enable-background:new 0 0 432 432;" xml:space="preserve">
<style type="text/css">
	.st0{fill:#CCCCCC;}
	.st1{fill:#B3B3B3;}
	.st2{fill:#D06C5D;}
	.st3{fill:#961F21;}
	.st4{fill:#8AC640;}
	.st5{fill:#CCA1CC;}
	.st6{fill:#BCD601;}
	.st7{fill:#FFCB39;}
	.st8{fill:#FC8792;}
	.st9{fill:#F5CED3;}
	.st10{fill:#1A1A1A;}
	.st11{fill:#F9F1DA;}
	.st12{fill:#E6E6E6;}
	.st13{fill:#DDC2A8;}
	.st14{fill:#97B87F;}
	.st15{fill:#FAA821;}
	.st16{fill:#333333;}
	.st17{fill:#4EBEB8;}
	.st18{fill:#ABDFEC;}
	.st19{fill:#FAA74B;}
	.st20{fill:#8C6239;}
	.st21{fill:#F06386;}
	.st22{fill:#F8E7D6;}
	.st23{fill:#D3C7BE;}
	.st24{fill:#E2D2C3;}
	.st25{fill:#9294CD;}
	.st26{fill:#E66667;}
	.st27{fill:#FFD602;}
	.st28{fill:#B776BA;}
	.st29{fill:#C69C6D;}
	.st30{fill:#E49F90;}
	.st31{fill:#EAC0B4;}
	.st32{fill:#D3B1AF;}
	.st33{fill:#F2F2F2;}
	.st34{fill:#9CCCB2;}
	.st35{fill:#CDB48C;}
	.st36{fill:#73C977;}
	.st37{fill:none;}
	.st38{fill:#EFB156;}
	.st39{fill:#D7F5F3;}
	.st40{fill:#DA407B;}
	.st41{fill:#DA4147;}
	.st42{fill:#912D61;}
	.st43{fill:#BFB49D;}
	.st44{fill:#FFFFFF;}
	.st45{fill:#23B6DB;}
	.st46{fill:#D7DD50;}
	.st47{fill:#DA444C;}
	.st48{fill:#4D4D4D;}
	.st49{fill:#97857A;}
	.st50{fill:#84735F;}
	.st51{fill:#6E2521;}
	.st52{fill:#3F3C35;}
	.st53{fill:#A1B099;}
	.st54{fill:#D4CEB9;}
	.st55{fill:#854E4C;}
	.st56{fill:#B9986D;}
	.st57{fill:#BAAC91;}
	.st58{fill:#3F4650;}
	.st59{fill:#7B7B73;}
	.st60{fill:#5A5B60;}
	.st61{fill:#984831;}
	.st62{fill:#B1885C;}
	.st63{fill:#653F34;}
	.st64{fill:#DCC69D;}
	.st65{fill:#727D6D;}
	.st66{fill:#9B7455;}
	.st67{fill:#826D56;}
	.st68{fill:#C3A88B;}
	.st69{fill:#96967A;}
	.st70{fill:#9F6B56;}
</style>
<g>
	<g>
		<path class="st9" d="M234.2,273c-2.3,0-3.5-0.7-4.3-2.1c-0.8-1.4-0.6-2.7,0.2-4c0.8-1.3,1.9-2.1,3.4-2.4c2.8-0.7,5.2,1.8,4.6,4.6
			C237.7,271.2,235.5,273,234.2,273z"/>
		<g>
			<path class="st10" d="M233.1,345.9c-0.2,0.3-0.4,0.6-0.5,0.8c-0.8,1.1-1.6,2.2-2.5,3.2c-2.7,2.8-6.5,3.6-10.1,2
				c-3.8-1.6-6.1-4.6-7.2-8.5c-1.4-4.9-0.6-9.4,2.6-13.4c1.8-2.3,4.1-3.8,7-4.2c1.7-0.2,3.4,0.1,4.9,0.9c2,1.1,3.7,2.6,4.8,4.7
				c0.1,0.3,0.3,0.5,0.6,1c0.9-6.3,2.7-12.2,4.1-18.3c-0.3-0.1-0.6-0.2-0.8-0.3c-3.1-1.3-6.3-2.5-9.4-3.8c-1.4-0.6-2.6-1.3-3.8-2.3
				c-0.8-0.7-1.4-1.5-1.5-2.6c-0.2-1.6,0.4-2.9,1.7-3.9c1.2-1,2.6-1.4,4.1-1.5c3.8-0.3,7.3,0.9,10.6,2.8c0.3,0.2,0.6,0.4,1,0.6
				c0,0,0.1,0,0.2,0c0-0.4,0-0.8,0-1.2c0-1.5-0.3-2.9-0.7-4.4c-0.5-1.5-1.4-2.6-2.8-3.2c-1.3-0.6-2.5-1.1-3.8-1.7
				c-2.1-0.9-4.3-1.8-6.3-2.9c-3.8-2-7.1-4.7-9.7-8.1c-3-3.9-4.7-8.3-5.3-13.2c0-0.4-0.1-0.9-0.1-1.3c0-0.4-0.1-0.9-0.1-1.4
				c-0.3,0.2-0.5,0.4-0.7,0.6c-1.7,1.2-3.6,1.8-5.5,0.7c-1.6-0.8-2.4-2.3-2.4-4c0-1.7,0.8-3.1,2.4-3.9c0.6-0.3,1.2-0.6,1.8-0.7
				c1.6-0.4,3,0.2,4,1.4c0.1,0.1,0.2,0.3,0.3,0.4c0.1,0.1,0.2,0.2,0.4,0.4c0.1-0.4,0.1-0.6,0.2-0.9c1.4-6.8,5-12.1,10.6-16.2
				c4.5-3.3,9.6-5.2,15.1-6c3.1-0.4,6.1-0.5,9.2-0.2c3.1,0.3,6.2,1.1,9.1,2.3c0.3,0.1,0.6,0.2,0.8,0.3c1.3-1.1,2.5-2.3,3.8-3.3
				c8.5-6.5,17.4-12.6,27-17.4c4.4-2.2,9.1-3.7,13.8-4.9c2.9-0.8,5.8-1.5,8.8-1.8c4.2-0.4,8.5-0.8,12.7-0.3c2.4,0.3,4.7,0.9,6.9,1.9
				c3.3,1.6,5.6,4,6.4,7.6c0.6,2.7,0.1,5.2-1,7.7c-1.1,2.5-2.8,4.6-4.8,6.5c-3.8,3.5-8.3,5.9-13.1,7.6c-5,1.7-10.2,2.8-15.5,3.2
				c-2.8,0.2-5.6,0.3-8.4,0.5c-0.2,0-0.4,0-0.6,0.2c0.3,0.1,0.6,0.2,0.9,0.2c6.1,1.4,12.1,3.1,17.9,5.5c6.1,2.5,11.8,5.5,16.9,9.8
				c5,4.1,8.8,9.1,11.1,15.1c1,2.7,1.6,5.5,1.5,8.4c-0.3,5.1-3.5,9-8.6,10.1c-3.7,0.8-7.2,0.4-10.8-0.6c-3.2-1-6.1-2.4-9-4
				c-4.9-2.7-9.2-6.1-13.5-9.6c-7.5-6.2-14.5-13-21.3-19.9c-0.3-0.3-0.5-0.6-0.7-0.9c-0.1,0.1-0.2,0.1-0.2,0.2
				c0.1,0.2,0.1,0.4,0.2,0.6c2.3,5.7,3.9,11.5,5,17.6c0.9,4.7,1.5,9.4,1.9,14.2c0.1,1.1,0.2,2.3,0.4,3.6c0.3-0.3,0.5-0.5,0.8-0.8
				c1.6-1.7,3.3-3.2,5.4-4.3c1.3-0.7,2.6-1.2,4.1-1.2c2.2,0,3.7,1.4,4,3.6c0.1,1.1,0,2.1-0.5,3.1c-0.6,1.6-1.5,3-2.8,4.1
				c-2.9,2.8-6,5.5-9.4,7.7c-0.6,0.4-0.8,0.8-0.8,1.5c0.2,4.3-0.2,8.5-0.8,12.8c-0.2,1.4-0.4,2.8-0.5,4.3c0.6,0.1,1.1,0.3,1.7,0.4
				c2.8,0.5,5.6,3.5,5.8,7.1c0.2,2.9-0.6,5.5-2.2,7.9c-1.9,2.9-4.3,5.3-7,7.4c-1.7,1.4-3.5,2.7-5.2,4c-0.2,0.2-0.5,0.4-0.7,0.6
				c1.1,0.3,2.1,0.6,3.1,0.9c0.8,0.3,1.6,0.7,2.4,1.1c1.4,0.8,2.2,2.2,2.7,3.7c0.4,1.5-0.2,2.8-1.5,3.6c-1.5,0.9-3.2,1.2-4.9,1.1
				c-1.8-0.1-3.6-0.4-5.3-1c-1.2-0.4-2.4-0.8-3.6-1.2c-0.1,0.2-0.2,0.3-0.2,0.5c-0.3,1.5-1.3,2.2-2.7,2.4c-1.7,0.1-3.3,0.2-5,0.1
				c-3.3-0.2-6.6-0.7-9.7-1.8c-4.5-1.5-8.2-4.1-11-7.9c-2.5-3.4-4.6-7-5.7-11.1C233.3,346.2,233.2,346.1,233.1,345.9z M264.7,364.4
				c0.1-0.5,0.1-1-0.1-1.5c-0.6-1.6-1.7-2.9-3.3-3.5c-0.8-0.3-1.6-0.7-2.4-1.1c-1.3-0.6-1.6-1.6-1.2-2.9c0.2-0.6,0.4-1.2,0.7-1.8
				c1.9-4.3,2.4-8.8,1.6-13.5c-0.3-2.1-1-4-2.1-5.8c-1.4-2.3-3.5-3.5-6.2-3.2c-0.9,0.1-1.7,0.3-2.3,0.9c-0.3,0.3-0.6,0.5-1,0.7
				c-0.5,0.3-1.1,0.1-1.5-0.3c-0.4-0.4-0.5-0.9-0.2-1.5c0.1-0.2,0.2-0.3,0.3-0.5c0.8-0.9,1.8-1.7,3-1.9c3.8-0.9,7.4,0,10,3.4
				c0.6,0.9,1.2,1.9,1.6,2.9c1,2.2,1.5,4.5,1.7,6.8c0.3,4.4-0.4,8.6-2.1,12.7c-0.2,0.5-0.4,1-0.6,1.6c2.8,0.9,5.1,2.2,6.3,4.9
				c0.9,0.2,1.6,0.4,2.4,0.6c1.1,0.3,2.1,0.6,3.2,1c1.5,0.4,3,0.8,4.6,0.8c1.1,0,2.1-0.2,3.1-0.6c-0.3-1.2-0.7-1.6-1.6-2.2
				c-1.3-0.7-2.7-1.1-4.2-1.3c-1.1-0.1-2.3-0.2-3.4-0.4c-1.4-0.2-1.9-1.6-1.1-2.7c0.4-0.5,0.8-0.9,1.3-1.3c2.3-1.9,4.6-3.7,6.8-5.5
				c1.4-1.2,2.8-2.3,4.1-3.6c1.5-1.4,2.8-3.1,3.7-5c0.7-1.4,1-2.9,0.7-4.5c-0.5-2-1.5-3.6-3.6-4.2c-0.9-0.2-1.8-0.3-2.7-0.2
				c-3,0.2-5.9,0.8-8.5,2.6c-0.1,0-0.1,0.1-0.2,0.1c-0.4,0.2-0.7,0.3-1-0.1c-0.3-0.3-0.2-0.6-0.1-1c0.3-0.7,0.8-1.3,1.4-1.7
				c1.2-1,2.6-1.6,4.1-2c1.3-0.3,2.6-0.6,3.9-0.9c0-0.2,0.1-0.5,0.1-0.7c0.2-2,0.4-4.1,0.5-6.1c0.2-2.1,0.3-4.3,0.4-6.4
				c0.1-3.5,0-7,0-10.6c0-4.2-0.2-8.3-0.7-12.5c-0.6-5.2-1.5-10.4-2.7-15.6c-1.3-5.5-3-10.8-5.4-15.9c-2.3-4.8-5.3-9.1-9.4-12.6
				c-4.8-4.2-10.3-6.8-16.7-7.8c-3.1-0.5-6.3-0.4-9.4,0c-4.4,0.6-8.4,2-12.1,4.3c-5,3.2-8.5,7.6-10.2,13.3
				c-1.2,4.1-1.1,8.3-0.2,12.5c0.3,1.2,0.6,2.4,1.2,3.6c0.6,1.2,1.7,1.5,2.9,1.5c1.2-0.1,2-0.7,2.7-1.5c0.8-1,1.4-2.1,1.8-3.3
				c0.3-0.9,1-1.3,1.8-1c0.6,0.3,0.9,1,0.7,1.7c-0.5,1.7-1.3,3.3-2.5,4.6c-1.2,1.4-2.7,2.2-4.5,2.3c-0.2,0-0.3,0-0.6,0.1
				c0.3,0.4,0.5,0.7,0.7,1c1.2,1.6,2.7,3.1,4.2,4.4c2.7,2.3,5.8,3.9,9.1,5.3c2.2,0.9,4.3,1.9,6.5,2.8c1.6,0.7,2.7,1.9,3.5,3.4
				c0.9,1.8,1.3,3.7,1.4,5.6c0.2,2.7-0.1,5.4-0.7,8.1c-0.8,3.6-1.7,7.1-2.6,10.7c-1.4,5.7-3.1,11.4-3.4,17.4
				c-0.1,2.6-0.1,5.3,0.7,7.9c1.1,3.8,2.9,7.2,5.2,10.4c2.6,3.8,6.2,6.2,10.5,7.5c2.9,0.9,5.8,1.2,8.8,1.5
				C262.2,364.5,263.4,364.6,264.7,364.4z M265,245.7c0.7,0.7,1.3,1.3,1.9,1.9c4.7,4.9,9.5,9.7,14.2,14.6
				c5.5,5.6,11.2,11.1,17.2,16.1c4,3.3,8,6.6,12.5,9.3c3.3,2,6.6,3.7,10.3,4.9c2.7,0.8,5.4,1.3,8.3,0.9c0.4-0.1,0.8-0.1,1.2-0.2
				c3.3-0.8,5.4-3.4,5.5-6.8c0.1-2.4-0.4-4.7-1.3-6.9c-2.1-5.6-5.6-10.2-10.1-14.1c-4.6-3.9-9.8-6.9-15.4-9.2
				c-9.9-4.1-20.3-6.5-30.9-8.1c-3.1-0.5-6.3-1-9.4-1.5C267.7,246.3,266.5,246,265,245.7z M259.3,240.1c0,0.1,0.1,0.2,0.1,0.2
				c0.5,0,1.1-0.1,1.6,0c2.7,0.4,5.5,0.7,8.2,1.2c6.2,1,12.4,1.8,18.7,2.1c6.8,0.3,13.6-0.2,20.3-1.6c4.1-0.9,8.1-2.2,11.9-4.1
				c2.9-1.5,5.6-3.4,7.8-5.9c1.4-1.6,2.6-3.4,3.1-5.5c1.1-3.9-0.2-7.2-3.7-9.2c-1-0.6-2.1-1.1-3.3-1.4c-3.6-1.1-7.3-1.2-11-0.9
				c-4.3,0.3-8.5,1.3-12.6,2.5c-14.7,4.3-27.8,11.8-39.7,21.4C260.2,239.2,259.8,239.6,259.3,240.1z M232.4,339.5
				c-0.1-0.6,0-1.1-0.2-1.7c-0.5-1.7-1.2-3.4-2.2-4.9c-1-1.6-2.4-2.8-4.1-3.6c-0.9-0.4-1.9-0.6-2.9-0.5c-2,0.2-3.5,1.2-4.7,2.7
				c-3.9,4.8-3,11.4,0.2,15.1c0.7,0.8,1.5,1.4,2.4,1.9c2.5,1.3,4.7,1.1,6.9-0.7c1.8-1.5,3-3.3,4-5.4
				C232.2,341.4,232.5,340.5,232.4,339.5z M238.6,305.9c-2.5-1.7-5.1-2.9-8.1-3.4c-1.7-0.3-3.4-0.3-5.1,0.5
				c-1.5,0.7-1.6,1.8-0.2,2.7c1,0.7,2,1.3,3.1,1.7c2.6,1.1,5.3,2.2,8,3.2c0.4,0.2,0.8,0.3,1.3,0.5
				C238.1,309.3,238.4,307.6,238.6,305.9z M283.8,306.2c0.3-0.2,0.5-0.3,0.7-0.4c2.3-1.9,4.6-3.8,6.9-5.7c0.8-0.7,1.5-1.6,2.1-2.5
				c0.3-0.4,0.5-0.8,0.7-1.2c0.3-0.7,0.4-1.4-0.1-2c-0.5-0.6-1.2-0.4-1.8-0.2c-1,0.4-2,0.8-3,1.4c-2.1,1.3-3.9,3-5.7,4.8
				c-0.2,0.2-0.3,0.5-0.3,0.7C283.5,302.7,283.6,304.4,283.8,306.2z"/>
			<path class="st10" d="M228.9,253.2c1,0,2.3,0.3,3.5,1c1.4,0.8,2.3,2,2.8,3.5c0.1,0.2,0.1,0.5,0.1,0.7c0,0.4-0.2,0.8-0.6,1
				c-0.4,0.2-0.9,0.1-1.2-0.2c-0.2-0.2-0.4-0.5-0.6-0.8c-1.4-2.8-4.9-3.6-7.5-1.9c-0.4,0.2-0.7,0.6-1,0.8c-0.4,0.3-0.7,0.4-1.1,0.1
				c-0.3-0.2-0.5-0.7-0.3-1.2c0.2-0.5,0.5-0.9,0.8-1.3C225,253.7,226.6,253.2,228.9,253.2z"/>
			<g>
				<path class="st10" d="M318,282.1c-1.8,0-3.5-0.4-5.1-1.1c-3.1-1.3-5.9-3.2-8.6-5.2c-1.5-1.1-3-2.3-4.4-3.6
					c-3.8-3.4-7.5-6.9-11.2-10.4c-1.3-1.2-2.3-2.7-3.5-4.1c-0.2-0.2-0.4-0.5-0.5-0.8c-0.5-0.9-0.2-1.8,0.8-2
					c0.7-0.2,1.4-0.3,2.1-0.2c1.1,0.1,2.2,0.4,3.2,0.8c2.3,0.8,4.5,1.7,6.7,2.4c5.4,1.9,10.3,4.6,15,7.8c1.7,1.1,3.3,2.3,4.9,3.5
					c1.7,1.3,3.1,2.9,4.2,4.7c0.6,0.8,1,1.7,1.2,2.7c0.6,3-1.3,5.3-4.3,5.5C318.4,282.1,318.2,282.1,318,282.1z M288.8,257.9
					c-0.1,0.1-0.1,0.1-0.2,0.2c1,1,1.9,2,2.9,2.9c3.9,3.5,7.8,7,11.8,10.3c2.7,2.3,5.6,4.2,8.7,5.9c1.3,0.7,2.6,1.4,4.1,1.7
					c0.9,0.2,1.9,0.3,2.8,0.2c1-0.1,1.5-0.9,1.3-1.8c-0.1-0.5-0.3-1-0.5-1.4c-0.3-0.5-0.6-1-1-1.5c-1.6-2-3.6-3.6-5.7-5
					c-1.9-1.2-3.8-2.4-5.7-3.6c-3.5-2.2-7.3-4.1-11.2-5.5C293.5,259.5,291.1,258.7,288.8,257.9z"/>
				<path class="st10" d="M292.7,241.5c-2.9-0.2-5.9-0.5-8.8-0.7c-3.5-0.3-6.9-0.7-10.4-1.1c-0.8-0.1-1.6-0.2-2.4-0.4
					c-0.3-0.1-0.6-0.2-0.8-0.3c-0.8-0.5-0.9-1.4-0.2-2c0.9-0.8,1.9-1.6,3-2.3c2.7-1.8,5.7-3.1,8.8-4.4c5.6-2.3,11.4-3.8,17.3-4.8
					c3.4-0.5,6.9-0.6,10.3,0.1c1.7,0.4,3.2,1.2,4.4,2.6c1.6,1.9,1.6,3.8,0.2,5.9c-0.8,1.1-1.8,1.9-2.9,2.6c-2.8,1.8-5.8,2.9-9,3.6
					C299,241.1,295.9,241.4,292.7,241.5z M274.5,236.6c0,0.1,0,0.1,0,0.2c0.4,0,0.8,0.1,1.2,0.1c1.1,0.1,2.3,0.1,3.4,0.2
					c3.7,0.3,7.4,0.7,11.2,0.9c3.8,0.3,7.6-0.1,11.3-1c2.6-0.6,5.2-1.5,7.5-3c0.9-0.6,1.7-1.3,2.5-2c0.6-0.6,0.5-1.1,0.1-1.8
					c-0.6-1-1.5-1.6-2.6-1.8c-1.3-0.3-2.7-0.5-4-0.6c-2.6-0.2-5.1,0.1-7.6,0.6c-7.5,1.4-14.6,3.8-21.3,7.2
					C275.6,235.9,275,236.3,274.5,236.6z"/>
			</g>
		</g>
		<g>
			<g>
				<path class="st11" d="M264.7,364.6c-1.3,0.2-2.5,0.2-3.8,0.1c-3-0.3-5.9-0.6-8.8-1.5c-4.4-1.3-7.9-3.7-10.5-7.5
					c-2.2-3.2-4.1-6.6-5.2-10.4c-0.7-2.6-0.8-5.2-0.7-7.9c0.3-5.9,1.9-11.6,3.4-17.4c0.9-3.6,1.8-7.1,2.6-10.7
					c0.6-2.6,0.8-5.3,0.7-8.1c-0.1-2-0.5-3.9-1.4-5.6c-0.8-1.6-1.9-2.7-3.5-3.4c-2.2-1-4.3-1.9-6.5-2.8c-3.2-1.4-6.3-3-9.1-5.3
					c-1.6-1.3-3-2.8-4.2-4.4c-0.2-0.3-0.4-0.6-0.7-1c0.3,0,0.4-0.1,0.6-0.1c1.8-0.1,3.3-0.9,4.5-2.3c1.2-1.3,2-2.9,2.5-4.6
					c0.2-0.8-0.1-1.5-0.7-1.7c-0.8-0.3-1.5,0.1-1.8,1c-0.4,1.2-1,2.3-1.8,3.3c-0.7,0.9-1.5,1.5-2.7,1.5c-1.3,0.1-2.3-0.3-2.9-1.5
					c-0.6-1.1-0.9-2.3-1.2-3.6c-0.9-4.2-1-8.3,0.2-12.5c1.7-5.7,5.2-10.1,10.2-13.3c3.7-2.4,7.8-3.8,12.1-4.3c3.1-0.4,6.3-0.5,9.4,0
					c6.3,1,11.9,3.6,16.7,7.8c4,3.5,7.1,7.8,9.4,12.6c2.4,5.1,4.1,10.5,5.4,15.9c1.2,5.1,2.1,10.3,2.7,15.6
					c0.5,4.2,0.7,8.3,0.7,12.5c0,3.5,0,7,0,10.6c0,2.1-0.2,4.3-0.4,6.4c-0.1,2-0.3,4.1-0.5,6.1c0,0.2-0.1,0.5-0.1,0.7
					c-1.3,0.3-2.6,0.6-3.9,0.9c-1.5,0.4-2.9,1.1-4.1,2c-0.6,0.5-1.1,1-1.4,1.7c-0.1,0.3-0.2,0.7,0.1,1c0.3,0.3,0.7,0.2,1,0.1
					c0.1,0,0.1-0.1,0.2-0.1c2.5-1.8,5.5-2.4,8.5-2.6c0.9-0.1,1.8,0,2.7,0.2c2.1,0.6,3.2,2.1,3.6,4.2c0.4,1.6,0,3.1-0.7,4.5
					c-0.9,1.9-2.2,3.5-3.7,5c-1.3,1.3-2.7,2.4-4.1,3.6c-2.3,1.9-4.5,3.7-6.8,5.5c-0.5,0.4-0.9,0.8-1.3,1.3c-0.8,1.1-0.3,2.5,1.1,2.7
					c1.1,0.2,2.3,0.2,3.4,0.4c1.5,0.2,2.9,0.6,4.2,1.3c1,0.5,1.3,1,1.6,2.2c-1,0.5-2,0.7-3.1,0.6c-1.6-0.1-3.1-0.4-4.6-0.8
					c-1.1-0.3-2.1-0.7-3.2-1c-0.8-0.2-1.5-0.4-2.4-0.6c-1.2-2.7-3.5-4-6.3-4.9c0.2-0.6,0.4-1.1,0.6-1.6c1.7-4.1,2.4-8.3,2.1-12.7
					c-0.2-2.4-0.7-4.7-1.7-6.8c-0.5-1-1-2-1.6-2.9c-2.6-3.5-6.2-4.3-10-3.4c-1.2,0.3-2.1,1-3,1.9c-0.1,0.1-0.2,0.3-0.3,0.5
					c-0.3,0.6-0.2,1.1,0.2,1.5c0.4,0.4,0.9,0.5,1.5,0.3c0.4-0.2,0.7-0.4,1-0.7c0.7-0.6,1.5-0.8,2.3-0.9c2.8-0.2,4.8,0.9,6.2,3.2
					c1.1,1.8,1.7,3.8,2.1,5.8c0.8,4.6,0.2,9.1-1.6,13.5c-0.3,0.6-0.5,1.2-0.7,1.8c-0.4,1.3,0,2.3,1.2,2.9c0.8,0.4,1.6,0.7,2.4,1.1
					c1.6,0.7,2.7,1.9,3.3,3.5C264.8,363.6,264.8,364.1,264.7,364.6z M234.2,273c1.3,0,3.5-1.8,3.9-3.8c0.6-2.8-1.9-5.3-4.6-4.6
					c-1.4,0.3-2.6,1.1-3.4,2.4c-0.8,1.3-1,2.7-0.2,4C230.6,272.3,231.9,273,234.2,273z M228.9,253.5c-2.3,0-3.9,0.5-5.2,1.8
					c-0.3,0.4-0.6,0.8-0.8,1.3c-0.2,0.5,0,0.9,0.3,1.2c0.4,0.3,0.8,0.2,1.1-0.1c0.4-0.3,0.7-0.6,1-0.8c2.6-1.8,6.1-0.9,7.5,1.9
					c0.2,0.3,0.4,0.6,0.6,0.8c0.3,0.3,0.8,0.4,1.2,0.2c0.4-0.2,0.6-0.5,0.6-1c0-0.2,0-0.5-0.1-0.7c-0.5-1.5-1.4-2.8-2.8-3.5
					C231.2,253.8,229.9,253.4,228.9,253.5z"/>
				<path class="st11" d="M265,245.7c1.4,0.3,2.7,0.6,3.9,0.8c3.1,0.5,6.3,1,9.4,1.5c10.6,1.7,21,4,30.9,8.1
					c5.6,2.3,10.8,5.2,15.4,9.2c4.5,3.9,8,8.5,10.1,14.1c0.8,2.2,1.4,4.5,1.3,6.9c-0.2,3.4-2.2,5.9-5.5,6.8
					c-0.4,0.1-0.8,0.2-1.2,0.2c-2.8,0.4-5.6,0-8.3-0.9c-3.7-1.1-7-2.9-10.3-4.9c-4.5-2.7-8.5-5.9-12.5-9.3
					c-6-5.1-11.7-10.5-17.2-16.1c-4.8-4.8-9.5-9.7-14.2-14.6C266.3,247,265.7,246.4,265,245.7z M318,282c0.2,0,0.4,0,0.6,0
					c3-0.1,4.9-2.5,4.3-5.5c-0.2-1-0.6-1.9-1.2-2.7c-1.2-1.8-2.6-3.4-4.2-4.7c-1.6-1.2-3.2-2.4-4.9-3.5c-4.7-3.2-9.6-5.9-15-7.8
					c-2.2-0.8-4.5-1.7-6.7-2.4c-1-0.4-2.1-0.6-3.2-0.8c-0.7-0.1-1.5,0-2.1,0.2c-0.9,0.3-1.2,1.2-0.8,2c0.1,0.3,0.3,0.5,0.5,0.8
					c1.1,1.4,2.2,2.9,3.5,4.1c3.7,3.5,7.4,7,11.2,10.4c1.4,1.3,2.9,2.4,4.4,3.6c2.7,2,5.5,3.9,8.6,5.2
					C314.5,281.6,316.2,282,318,282z"/>
				<path class="st11" d="M259.3,240c0.5-0.4,0.9-0.9,1.4-1.3c11.9-9.6,25-17.1,39.7-21.4c4.1-1.2,8.3-2.1,12.6-2.5
					c3.7-0.3,7.4-0.2,11,0.9c1.1,0.4,2.3,0.8,3.3,1.4c3.4,2,4.7,5.4,3.7,9.2c-0.6,2.1-1.7,3.9-3.1,5.5c-2.2,2.5-4.9,4.4-7.8,5.9
					c-3.7,2-7.8,3.2-11.9,4.1c-6.7,1.5-13.5,2-20.3,1.6c-6.3-0.3-12.5-1.1-18.7-2.1c-2.7-0.4-5.5-0.8-8.2-1.2c-0.5-0.1-1.1,0-1.6,0
					C259.4,240.2,259.3,240.1,259.3,240z M292.8,241.5c3.1-0.1,6.2-0.4,9.3-1.1c3.2-0.7,6.3-1.8,9-3.6c1.1-0.7,2.1-1.6,2.9-2.6
					c1.5-2,1.4-3.9-0.2-5.9c-1.1-1.4-2.6-2.2-4.4-2.6c-3.4-0.7-6.9-0.7-10.3-0.1c-5.9,0.9-11.7,2.5-17.3,4.8c-3,1.2-6,2.6-8.8,4.4
					c-1,0.7-2,1.5-3,2.3c-0.7,0.6-0.6,1.5,0.2,2c0.2,0.2,0.5,0.3,0.8,0.3c0.8,0.1,1.6,0.3,2.4,0.4c3.5,0.4,6.9,0.7,10.4,1.1
					C286.9,241,289.8,241.2,292.8,241.5z"/>
				<path class="st11" d="M238.6,306.1c-0.2,1.8-0.5,3.5-1,5.3c-0.5-0.2-0.9-0.3-1.3-0.5c-2.7-1.1-5.4-2.1-8-3.2
					c-1.1-0.5-2.1-1.1-3.1-1.7c-1.4-1-1.3-2,0.2-2.7c1.6-0.8,3.3-0.8,5.1-0.5C233.4,303.2,236.1,304.4,238.6,306.1z"/>
				<path class="st11" d="M283.8,306.4c-0.1-1.8-0.3-3.5-0.4-5.2c0-0.2,0.1-0.5,0.3-0.7c1.8-1.7,3.6-3.5,5.7-4.8
					c0.9-0.6,1.9-1,3-1.4c0.6-0.2,1.3-0.4,1.8,0.2c0.5,0.6,0.4,1.3,0.1,2c-0.2,0.4-0.4,0.9-0.7,1.2c-0.7,0.9-1.3,1.8-2.1,2.5
					c-2.2,2-4.6,3.8-6.9,5.7C284.3,306.1,284.1,306.2,283.8,306.4z"/>
			</g>
			<g>
				<path class="st9" d="M232.4,339.7c0.2,1-0.2,1.9-0.6,2.8c-0.9,2.1-2.2,3.9-4,5.4c-2.2,1.8-4.4,2.1-6.9,0.7
					c-0.9-0.5-1.7-1.1-2.4-1.9c-3.2-3.8-4.1-10.3-0.2-15.1c1.2-1.5,2.7-2.5,4.7-2.7c1-0.1,2,0.1,2.9,0.5c1.7,0.8,3.1,2,4.1,3.6
					c1,1.5,1.7,3.1,2.2,4.9C232.3,338.6,232.3,339.2,232.4,339.7z"/>
				<g>
					<path class="st9" d="M288.8,257.9c2.4,0.8,4.8,1.6,7.1,2.4c3.9,1.4,7.7,3.2,11.2,5.5c1.9,1.2,3.8,2.4,5.7,3.6
						c2.1,1.4,4.1,3,5.7,5c0.4,0.5,0.7,1,1,1.5c0.2,0.4,0.4,0.9,0.5,1.4c0.2,0.9-0.3,1.8-1.3,1.8c-0.9,0.1-1.9,0-2.8-0.2
						c-1.5-0.3-2.8-0.9-4.1-1.7c-3.1-1.7-6-3.6-8.7-5.9c-4-3.4-7.9-6.9-11.8-10.3c-1-0.9-1.9-2-2.9-2.9
						C288.7,258.1,288.7,258,288.8,257.9z"/>
					<path class="st9" d="M274.5,236.6c0.5-0.3,1-0.7,1.6-1c6.7-3.5,13.9-5.9,21.3-7.2c2.5-0.5,5-0.8,7.6-0.6c1.3,0.1,2.7,0.3,4,0.6
						c1.1,0.2,2,0.9,2.6,1.8c0.4,0.7,0.5,1.2-0.1,1.8c-0.8,0.7-1.6,1.5-2.5,2c-2.3,1.5-4.8,2.4-7.5,3c-3.7,0.9-7.5,1.3-11.3,1
						c-3.7-0.3-7.4-0.6-11.2-0.9c-1.1-0.1-2.3-0.2-3.4-0.2c-0.4,0-0.8-0.1-1.2-0.1C274.6,236.7,274.5,236.6,274.5,236.6z"/>
				</g>
			</g>
		</g>
	</g>
	<g>
		<path class="st9" d="M299.3,175.3c-1.4,0.1-2.7-0.3-3.9-0.9c-0.4-0.2-0.9-0.5-1.2-0.9c-1.3-1.2-1.4-2.9-0.3-4.3
			c0.9-1.2,2.2-1.8,3.6-2c2.2-0.3,4.2,0.4,5.9,1.7c1.9,1.5,1.7,4.1-0.3,5.4C302,175,300.9,175.3,299.3,175.3z"/>
		<g>
			<g>
				<path class="st10" d="M299.7,138.7c0.5,0,1,0,1.5,0c4.6,0,9.1,0.9,13.2,3.1c7.3,3.8,12.1,9.7,14.1,17.7c0.3,1.1,0.4,2.2,0.6,3.4
					c0.3-0.1,0.5-0.3,0.8-0.4c2.1-1.2,4.5-1,6.4,0.5c1.6,1.2,1.9,2.9,1.6,4.8c-0.5,3.4-4.6,5.8-7.4,4.9c-1.1-0.3-1.9-0.9-2.7-1.7
					c-0.1,0.2-0.2,0.3-0.3,0.4c-2,4.4-5.2,7.6-9.1,10.2c-4.6,3-9.7,5-15.2,6c-2.2,0.4-4.3,0.4-6.5,0.2c-1.9-0.1-3.8-0.3-5.7-0.3
					c-1,0-2,0.2-3,0.4c-0.6,0.1-1.2,0.4-1.7,1c0.8,0.5,1.6,0.5,2.4,0.7c1.6,0.3,3.2,0.5,4.8,1c1.9,0.5,3.4,1.5,4.6,3.1
					c1.1,1.6,1.2,3.2,0.3,4.9c-0.8,1.7-2.1,2.8-3.8,3.5c-3.8,1.6-7.7,1.7-11.6,0.2c-3.4-1.3-6.6-3-9.5-5.2c-1-0.7-1.9-1.4-2.9-2.1
					c-2.3-1.6-4.9-2.1-7.7-2c-6.6,0.2-13.2,0.5-19.8,0.6c-1.3,0-2.6-0.1-3.9-0.2c-0.3,0-0.5,0-0.7,0.2c-1.4,1.5-3.3,2.3-5.2,2.9
					c-2.8,0.8-5.8,1.3-8.7,1.7c-3.8,0.5-7.6,0.9-11.3,1.3c-4,0.4-8,0.6-12.1,0.4c-3.8-0.2-7.3-1.1-10.2-3.6c-3-2.5-4.8-5.8-5.8-9.5
					c-0.7-2.7-0.7-5.5-0.3-8.3c0-0.2,0-0.3,0.1-0.6c-0.3,0.1-0.5,0.2-0.7,0.4c-2.6,1.7-5.3,2-8.1,0.8c-4-1.7-6.3-4.8-7.1-8.9
					c-0.7-3.9,0.2-7.5,2.4-10.7c1.7-2.5,4.1-3.9,7.1-4.3c2.7-0.3,5.1,0.7,7,2.6c1.8,1.8,2.8,4,3.4,6.4c0.2,0.6,0.3,1.3,0.6,2.1
					c0.1-0.1,0.1-0.3,0.2-0.4c3.3-5.2,7.8-9.4,12.8-12.9c5.6-3.9,11.8-6.4,18.5-7.5c8.7-1.5,17-0.3,25.1,3.1c3.1,1.3,6.1,2.9,9,4.6
					c1.7,1,3.4,1.9,5.1,2.9c0.4,0.2,0.9,0.4,1.4,0.6c1.5,0.7,2.9,0.7,4.3-0.2c1.1-0.7,2.3-1.5,3.3-2.3c1.5-1.2,2.8-2.4,4.2-3.6
					c3.2-2.7,6.7-5,10.4-7c0.1-0.1,0.3-0.2,0.5-0.3c-0.6-0.3-1.1-0.5-1.6-0.8c-2.4-1.1-4.8-2.2-7.1-3.4c-6.4-3.1-12.2-7.1-17.6-11.6
					c-4.7-3.9-8.7-8.4-11.7-13.7c-1.9-3.2-3.3-6.6-3.8-10.3c-0.3-1.8-0.3-3.6,0.1-5.4c0.7-3.5,3.3-5.8,6.9-6.2
					c2.6-0.3,5.1,0.1,7.6,1.1c3.7,1.4,7,3.5,10.1,6c6.3,5.2,11.3,11.5,15.2,18.7c0.7,1.3,1.3,2.6,2,3.9c0.1,0.2,0.3,0.5,0.5,0.7
					c-0.3-1.1-0.5-2.2-0.8-3.4c-1.1-4.9-1.8-9.9-2.1-14.9c-0.3-4.8-0.3-9.7,0.3-14.5c0.6-4.8,1.5-9.5,3.4-14c1-2.5,2.3-4.8,4-6.8
					c1-1.1,2-2.1,3.4-2.8c2.5-1.2,4.9-1.1,7.2,0.6c1.1,0.9,2,2,2.8,3.2c1.4,2.2,2.3,4.6,3,7.1c1.4,5.4,2,11,1.8,16.6
					c-0.2,6.9-1.2,13.8-2.4,20.6c-1.4,7.9-3.1,15.8-5.4,23.5C300,137.7,299.9,138.1,299.7,138.7z M319.2,176.2
					c-0.4-0.1-0.6-0.1-0.8-0.1c-2.8-0.4-4.2-2.2-5.1-4.6c-0.3-0.7,0-1.4,0.5-1.7c0.6-0.3,1.2-0.2,1.8,0.5c0.2,0.2,0.3,0.4,0.4,0.6
					c0.2,0.3,0.4,0.7,0.7,1c1.1,1.3,2.3,1.6,3.9,1c0.7-0.3,1.3-0.7,2-1.1c0.6-0.3,1-0.9,1.3-1.5c1.9-4,1.9-8,0.5-12.1
					c-3.7-10.5-15.4-17.4-26.4-15.5c-6.6,1.1-12.7,3.4-18.2,7.2c-2.3,1.6-4.5,3.4-6.7,5.2c-1.8,1.4-3.5,2.9-5.4,4.1
					c-2.3,1.3-4.6,1.6-7,0.5c-1.9-0.8-3.7-1.8-5.6-2.7c-2.5-1.3-4.9-2.8-7.5-4c-7-3.4-14.3-5.2-22.2-4.4c-3.6,0.4-7.2,1-10.6,2.2
					c-7,2.4-13,6.5-18.1,11.9c-4,4.2-6.8,9-8.4,14.6c-1.3,4.3-0.9,8.5,1.2,12.4c1.9,3.6,4.8,6,8.9,6.6c2.1,0.3,4.3,0.4,6.4,0.3
					c2.3,0,4.6-0.3,6.9-0.4c5.7-0.4,11.3-1,16.9-1.9c2-0.3,3.9-0.7,5.7-1.5c1-0.4,1.9-0.9,2.5-2c0.6-1.2,0.6-1.8-0.4-2.7
					c-0.6-0.6-1.4-1-2.3-1.2c-1.6-0.5-3.2-0.3-4.8-0.1c-0.8,0.1-1.6,0.2-2.4,0.3c-0.2,0-0.5,0-0.7-0.1c-0.4-0.1-0.8-0.3-0.8-0.8
					c-0.1-0.5,0.1-0.8,0.5-1.1c0.3-0.2,0.7-0.4,1.1-0.5c0.9-0.3,1.9-0.5,2.8-0.7c2.4-0.4,4.7-0.2,6.9,0.9c1.3,0.7,2.5,1.6,3.1,3.1
					c0.3,0.7,0.4,1.4,0.7,2.3c0.3,0,0.6,0,0.9,0c4.4-0.1,8.8-0.2,13.2-0.3c2,0,4-0.2,6-0.2c1.4-0.1,2.9-0.1,4.3-0.1
					c2,0,3.9,0.6,5.7,1.4c1.8,0.9,3.4,2,5,3.2c2.6,2,5.6,3.5,8.6,4.8c2.9,1.1,5.7,1.1,8.6,0.1c0.9-0.3,1.7-0.8,2.3-1.6
					c0.7-0.9,0.7-1.5-0.1-2.3c-0.6-0.6-1.4-1.1-2.2-1.2c-1.5-0.2-2.9-0.4-4.4-0.6c-1.3-0.1-2.6-0.4-3.7-1c-2.5-1.4-2.8-4.3-0.7-6.2
					c1.2-1,2.6-1.6,4.1-1.9c2.3-0.4,4.6-0.3,7-0.1c2.4,0.2,4.7,0.4,7.1,0c5.6-0.9,10.7-3,15.4-6.3
					C318,177.2,318.5,176.8,319.2,176.2z M293,139.8c0.5-0.1,1.1-0.2,1.6-0.4c0.2-0.1,0.4-0.2,0.5-0.4c0.7-1.6,1.6-3.1,2.1-4.8
					c0.9-3.8,2-7.6,2.8-11.4c1.9-9.1,3.6-18.2,4.2-27.5c0.3-5.2,0.1-10.4-1.1-15.6c-0.5-2.5-1.2-4.9-2.4-7.1
					c-0.7-1.3-1.4-2.4-2.5-3.4c-1.4-1.3-2.9-1.4-4.5-0.3c-0.8,0.6-1.6,1.4-2.2,2.2c-1.3,1.6-2.2,3.5-3,5.4c-2,5.1-2.8,10.5-3.2,15.9
					c-0.3,4-0.2,8.1,0.1,12.2c0.3,4,0.8,7.9,1.7,11.8c1,4.6,2.2,9.2,3.4,13.7C291.4,133.3,292.2,136.5,293,139.8z M288.7,141.1
					c-0.6-1.4-1.1-2.8-1.6-4.1c-1.6-3.9-3.1-7.8-4.7-11.6c-2.4-5.7-5.5-11-9.4-15.8c-3.7-4.5-7.8-8.4-12.8-11.4
					c-1.7-1-3.4-1.8-5.2-2.4c-1.8-0.6-3.6-0.9-5.5-0.7c-2,0.3-3.3,1.3-3.9,3.2c-0.3,1-0.4,2-0.4,3c0.1,3,1,5.9,2.4,8.6
					c2.3,4.6,5.4,8.7,9.2,12.2c3.6,3.4,7.5,6.3,11.6,9c5.4,3.5,11.1,6.3,16.9,8.9c0.9,0.4,1.7,0.8,2.6,1.2
					C288.1,141.3,288.4,141.4,288.7,141.1z M172.4,167.5c0,0.4,0.1,1,0.2,1.6c0.5,2.6,1.7,4.7,4.1,6c2.3,1.3,4.8,1.1,6.8-0.7
					c1.3-1.1,2.4-2.4,3.1-4c0.2-0.4,0.3-0.8,0.3-1.2c-0.1-2.1-0.3-4.1-1.1-6.1c-0.6-1.4-1.3-2.7-2.5-3.7c-1.8-1.7-4.1-2-6.4-0.9
					c-1.3,0.7-2.3,1.7-3,3C172.9,163.3,172.5,165.3,172.4,167.5z"/>
				<path class="st10" d="M312.7,160.4c0.1,1.1-0.3,2.1-1.2,2.8c-0.9,0.7-2,0.7-2.8,0c-0.3-0.3-0.6-0.6-0.8-0.9
					c-0.8-1.4-1.1-3-0.7-4.6c0.1-0.2,0.1-0.5,0.3-0.7c0.9-1.9,3.1-2,4.2-0.3C312.4,157.8,312.7,159.1,312.7,160.4z"/>
			</g>
			<path class="st10" d="M300.6,96.6c-0.1,4.7-0.7,9.3-1.7,13.9c-0.5,2.2-1,4.3-1.6,6.5c-0.1,0.4-0.3,0.8-0.5,1.2
				c-0.7,1.3-2.1,1.6-3.2,0.6c-0.6-0.5-1-1.2-1.3-1.9c-0.8-1.9-1.6-3.8-2.2-5.7c-1-3.1-1.5-6.4-1.7-9.6c-0.2-2-0.3-3.9-0.3-5.9
				c0-2.3,0.2-4.5,0.9-6.7c0.3-1.1,0.8-2.1,1.4-3.1c0.4-0.7,1-1.4,1.7-1.8c1.3-1,2.8-1,4.2-0.1c1.1,0.7,1.9,1.7,2.5,2.9
				c0.8,1.7,1.3,3.5,1.5,5.3C300.4,93.6,300.5,95.1,300.6,96.6z M294.6,114.7c0.1-0.2,0.2-0.3,0.2-0.4c0.1-0.2,0.1-0.4,0.2-0.6
				c1.2-5.2,1.9-10.4,2-15.7c0.1-2.9-0.1-5.7-1-8.5c-0.2-0.7-0.6-1.4-1-2c-0.7-0.9-1.2-0.9-1.8,0c-0.5,0.7-0.9,1.5-1.1,2.4
				c-0.6,1.6-0.7,3.4-0.7,5.1c-0.1,3.5,0.3,7,0.8,10.4c0.3,2.2,0.7,4.4,1.5,6.5C293.8,112.8,294.2,113.7,294.6,114.7z"/>
			<path class="st10" d="M258.7,105.7c1.2,0,2.2,0.3,3.2,0.9c2.4,1.2,4.4,2.8,6.2,4.7c3.3,3.5,5.9,7.4,8.3,11.5
				c0.8,1.5,1.7,3,2.2,4.7c0.1,0.4,0.2,0.8,0.3,1.2c0.1,1-0.4,1.7-1.4,1.7c-0.4,0-0.8,0-1.2-0.2c-5.9-2.6-11.2-6-15.6-10.8
				c-1.9-2-3.5-4.3-4.6-6.8c-0.3-0.7-0.6-1.5-0.8-2.3c-0.1-0.5-0.1-1.1-0.1-1.6C255.4,106.8,256.7,105.7,258.7,105.7z M275.2,126.9
				c0.1-0.1,0.1-0.1,0.2-0.2c-0.6-1.1-1.2-2.1-1.9-3.2c-2.2-3.6-4.5-7-7.4-10.1c-1.5-1.6-3.1-3.1-5.1-4.1c-0.6-0.3-1.3-0.6-2-0.8
				c-1-0.2-1.3,0.1-1.1,1.1c0.2,0.7,0.4,1.4,0.7,2.1c1.2,2.7,3.1,4.9,5.3,6.9c2.7,2.6,5.7,4.7,8.9,6.7
				C273.6,126,274.4,126.4,275.2,126.9z"/>
		</g>
		<g>
			<g>
				<path class="st12" d="M319.2,176.2c-0.7,0.6-1.2,1-1.8,1.4c-4.7,3.2-9.8,5.3-15.4,6.3c-2.3,0.4-4.7,0.2-7.1,0
					c-2.3-0.2-4.6-0.3-7,0.1c-1.6,0.3-2.9,0.9-4.1,1.9c-2.2,1.9-1.9,4.8,0.7,6.2c1.1,0.6,2.4,0.8,3.7,1c1.5,0.2,2.9,0.3,4.4,0.6
					c0.8,0.1,1.6,0.6,2.2,1.2c0.8,0.8,0.8,1.4,0.1,2.3c-0.6,0.8-1.4,1.3-2.3,1.6c-2.9,1-5.7,1.1-8.6-0.1c-3.1-1.2-6-2.7-8.6-4.8
					c-1.6-1.2-3.2-2.4-5-3.2c-1.8-0.9-3.7-1.4-5.7-1.4c-1.4,0-2.9,0-4.3,0.1c-2,0.1-4,0.2-6,0.2c-4.4,0.1-8.8,0.2-13.2,0.3
					c-0.3,0-0.7,0-0.9,0c-0.2-0.8-0.4-1.6-0.7-2.3c-0.6-1.4-1.7-2.4-3.1-3.1c-2.2-1.1-4.5-1.3-6.9-0.9c-1,0.2-1.9,0.4-2.8,0.7
					c-0.4,0.1-0.8,0.3-1.1,0.5c-0.4,0.2-0.6,0.6-0.5,1.1c0.1,0.5,0.4,0.7,0.8,0.8c0.2,0.1,0.5,0.1,0.7,0.1c0.8-0.1,1.6-0.2,2.4-0.3
					c1.6-0.2,3.2-0.4,4.8,0.1c0.9,0.3,1.7,0.6,2.3,1.2c0.9,0.9,0.9,1.5,0.4,2.7c-0.5,1.1-1.4,1.6-2.5,2c-1.8,0.8-3.8,1.2-5.7,1.5
					c-5.6,0.9-11.3,1.5-16.9,1.9c-2.3,0.2-4.6,0.4-6.9,0.4c-2.1,0-4.3,0-6.4-0.3c-4.1-0.6-7-3-8.9-6.6c-2.1-4-2.5-8.1-1.2-12.4
					c1.6-5.5,4.4-10.4,8.4-14.6c5.1-5.4,11.1-9.5,18.1-11.9c3.4-1.2,7-1.8,10.6-2.2c7.8-0.8,15.2,1.1,22.2,4.4c2.5,1.2,5,2.7,7.5,4
					c1.8,1,3.7,1.9,5.6,2.7c2.4,1.1,4.8,0.8,7-0.5c2-1.1,3.7-2.6,5.4-4.1c2.2-1.8,4.4-3.6,6.7-5.2c5.5-3.8,11.6-6.1,18.2-7.2
					c11-1.9,22.8,5,26.4,15.5c1.4,4.1,1.5,8.1-0.5,12.1c-0.3,0.6-0.7,1.2-1.3,1.5c-0.7,0.4-1.3,0.8-2,1.1c-1.6,0.7-2.8,0.3-3.9-1
					c-0.3-0.3-0.5-0.7-0.7-1c-0.1-0.2-0.3-0.4-0.4-0.6c-0.5-0.6-1.2-0.8-1.8-0.5c-0.6,0.3-0.8,1-0.5,1.7c1,2.3,2.4,4.2,5.1,4.6
					C318.6,176.1,318.8,176.1,319.2,176.2z M299.3,175.3c1.6,0,2.7-0.3,3.7-0.9c2-1.3,2.1-4,0.3-5.4c-1.7-1.4-3.7-2.1-5.9-1.7
					c-1.4,0.2-2.7,0.8-3.6,2c-1.1,1.4-0.9,3.1,0.3,4.3c0.4,0.3,0.8,0.6,1.2,0.9C296.6,175,298,175.3,299.3,175.3z M312.7,160.4
					c0-1.3-0.3-2.6-1-3.7c-1.1-1.7-3.3-1.6-4.2,0.3c-0.1,0.2-0.2,0.5-0.3,0.7c-0.4,1.6-0.2,3.2,0.7,4.6c0.2,0.3,0.5,0.7,0.8,0.9
					c0.9,0.7,1.9,0.7,2.8,0C312.5,162.5,312.8,161.6,312.7,160.4z"/>
				<path class="st12" d="M293,139.8c-0.8-3.3-1.7-6.5-2.5-9.7c-1.1-4.6-2.3-9.1-3.4-13.7c-0.9-3.9-1.4-7.9-1.7-11.8
					c-0.3-4.1-0.3-8.1-0.1-12.2c0.3-5.4,1.2-10.8,3.2-15.9c0.7-1.9,1.6-3.8,3-5.4c0.7-0.8,1.4-1.6,2.2-2.2c1.5-1.1,3-1,4.5,0.3
					c1.1,1,1.8,2.1,2.5,3.4c1.2,2.3,1.8,4.7,2.4,7.1c1.1,5.1,1.4,10.3,1.1,15.6c-0.5,9.3-2.2,18.4-4.2,27.5
					c-0.8,3.8-1.9,7.6-2.8,11.4c-0.4,1.7-1.4,3.2-2.1,4.8c-0.1,0.2-0.3,0.3-0.5,0.4C294.1,139.6,293.5,139.7,293,139.8z M300.6,96.6
					c-0.1-1.5-0.2-3-0.3-4.5c-0.2-1.9-0.7-3.6-1.5-5.3c-0.6-1.2-1.3-2.2-2.5-2.9c-1.4-0.9-2.9-0.9-4.2,0.1c-0.7,0.5-1.3,1.1-1.7,1.8
					c-0.6,1-1,2-1.4,3.1c-0.7,2.2-0.9,4.4-0.9,6.7c0,2,0.1,4,0.3,5.9c0.3,3.3,0.8,6.5,1.7,9.6c0.6,1.9,1.4,3.8,2.2,5.7
					c0.3,0.7,0.8,1.4,1.3,1.9c1,1,2.5,0.7,3.2-0.6c0.2-0.4,0.3-0.8,0.5-1.2c0.5-2.2,1.1-4.3,1.6-6.5
					C299.8,106,300.5,101.4,300.6,96.6z"/>
				<path class="st12" d="M288.7,141.1c-0.3,0.3-0.6,0.2-0.9,0.1c-0.9-0.4-1.7-0.8-2.6-1.2c-5.8-2.7-11.5-5.5-16.9-8.9
					c-4.1-2.7-8.1-5.6-11.6-9c-3.7-3.6-6.9-7.6-9.2-12.2c-1.3-2.7-2.2-5.5-2.4-8.6c0-1,0.1-2,0.4-3c0.6-1.9,1.9-3,3.9-3.2
					c1.9-0.2,3.7,0.1,5.5,0.7c1.8,0.6,3.5,1.5,5.2,2.4c5,3,9.2,6.9,12.8,11.4c3.9,4.8,7,10.1,9.4,15.8c1.7,3.8,3.2,7.7,4.7,11.6
					C287.6,138.3,288.1,139.7,288.7,141.1z M258.7,105.7c-2.1,0-3.3,1-3.5,2.9c0,0.5,0,1.1,0.1,1.6c0.2,0.8,0.5,1.6,0.8,2.3
					c1.1,2.5,2.7,4.8,4.6,6.8c4.4,4.7,9.7,8.2,15.6,10.8c0.4,0.2,0.8,0.2,1.2,0.2c1,0,1.5-0.7,1.4-1.7c-0.1-0.4-0.2-0.8-0.3-1.2
					c-0.5-1.7-1.4-3.2-2.2-4.7c-2.3-4.1-5-8.1-8.3-11.5c-1.8-1.9-3.8-3.5-6.2-4.7C260.9,106.1,259.9,105.7,258.7,105.7z"/>
			</g>
			<g>
				<path class="st9" d="M172.4,167.5c0.1-2.3,0.5-4.2,1.5-6c0.7-1.3,1.7-2.3,3-3c2.2-1.1,4.5-0.8,6.4,0.9c1.1,1,1.9,2.3,2.5,3.7
					c0.8,2,1,4,1.1,6.1c0,0.4-0.1,0.9-0.3,1.2c-0.7,1.6-1.8,2.9-3.1,4c-2,1.7-4.5,2-6.8,0.7c-2.3-1.3-3.6-3.4-4.1-6
					C172.5,168.5,172.4,167.9,172.4,167.5z"/>
				<g>
					<path class="st9" d="M294.6,114.7c-0.4-1-0.8-1.9-1.2-2.8c-0.8-2.1-1.1-4.3-1.5-6.5c-0.5-3.5-0.9-6.9-0.8-10.4
						c0.1-1.7,0.2-3.5,0.7-5.1c0.3-0.8,0.7-1.6,1.1-2.4c0.6-0.9,1.2-0.9,1.8,0c0.4,0.6,0.8,1.3,1,2c0.9,2.7,1.1,5.6,1,8.5
						c-0.1,5.3-0.8,10.5-2,15.7c0,0.2-0.1,0.4-0.2,0.6C294.8,114.4,294.8,114.4,294.6,114.7z"/>
					<path class="st9" d="M275.2,126.9c-0.8-0.5-1.6-1-2.4-1.5c-3.2-2-6.2-4.1-8.9-6.7c-2.1-2-4-4.3-5.3-6.9
						c-0.3-0.7-0.6-1.4-0.7-2.1c-0.2-1,0.1-1.3,1.1-1.1c0.7,0.2,1.4,0.4,2,0.8c2,1.1,3.6,2.5,5.1,4.1c2.9,3.1,5.2,6.5,7.4,10.1
						c0.6,1,1.2,2.1,1.9,3.2C275.3,126.8,275.2,126.9,275.2,126.9z"/>
				</g>
			</g>
		</g>
	</g>
	<g>
		<path class="st9" d="M138.7,312.9c-2,0-3.3-0.7-4.3-1.9c-1.1-1.3-1-3,0.1-4.3c0.2-0.2,0.4-0.4,0.6-0.6c1.4-1.1,3.1-1.3,4.8-1.1
			c1.8,0.3,2.9,1.8,2.7,3.6c-0.1,1.4-0.7,2.7-2,3.6C140,312.7,139.2,312.9,138.7,312.9z"/>
		<path class="st9" d="M99.9,307.8c-0.1-2,1.3-3.4,3.5-3.5c2-0.1,4,1.5,4,3.3c0,2.4-1,3.8-3.8,3.9
			C101.8,311.7,99.7,310.3,99.9,307.8z"/>
		<g>
			<path class="st10" d="M120.7,276.1c-0.4-0.7-0.7-1.2-1-1.8c-2.2-4.2-3.9-8.7-5.3-13.2c-1.8-5.8-3-11.7-3.8-17.7
				c-0.7-4.8-0.9-9.6-0.7-14.5c0.2-3.8,0.9-7.6,2.4-11.2c1.1-2.8,2.8-5.1,5.2-6.9c4.9-3.7,10.7-2.2,14,1.8c1.3,1.6,2.1,3.4,2.7,5.2
				c1,2.8,1.4,5.7,1.7,8.7c0.8,7.1,0.7,14.2,0.5,21.3c-0.1,1.8-0.2,3.6-0.1,5.5c0.1-0.3,0.3-0.6,0.4-1c1.9-6.1,4-12.1,6.4-18
				c2.4-5.9,5.3-11.6,8.8-16.9c3.1-4.7,6.9-8.8,11.4-12c2.1-1.5,4.3-2.6,6.8-3.2c1.5-0.3,3-0.4,4.5-0.2c3,0.5,5,2.1,6.3,4.8
				c1,2.1,1.4,4.4,1.5,6.7c0.1,4.4-0.7,8.6-1.9,12.7c-2,6.5-4.9,12.6-8.3,18.4c-4.2,7.1-9,13.8-14.2,20.2c-2.5,3-4.9,6-7.4,8.9
				c-2.1,2.5-4.4,4.6-6.8,6.8c-0.2,0.2-0.5,0.4-0.7,0.7c0.2,0.2,0.3,0.4,0.5,0.6c4.4,4.3,7,9.6,8.1,15.7c0.6,3.5,0.6,7-0.3,10.5
				c-1.5,5.8-4.8,10.3-9.5,13.9c-5,3.7-10.6,5.7-16.8,6.1c-8.3,0.5-15.7-1.6-22.4-6.5c-4.4-3.2-7.6-7.4-9.3-12.7
				c-1.6-5-1.2-9.9,1.1-14.7c2.3-4.7,5.7-8.5,9.8-11.7c0.7-0.6,1.5-1.1,2.3-1.7c1.6-1.2,3.5-2,5.4-2.7c2.6-0.9,5.2-1.4,7.9-1.7
				C120.1,276.2,120.4,276.1,120.7,276.1z M126.1,279.5c-3.8,0-7.3,0.4-10.7,1.1c-1.9,0.4-3.8,0.8-5.5,1.7
				c-5.5,3.1-9.6,7.5-12.4,13.1c-1.6,3.2-2.1,6.7-1.4,10.3c0.7,3.4,2.2,6.4,4.5,9c2.3,2.6,5,4.7,8.1,6.2c5.5,2.8,11.3,3.7,17.4,3.1
				c4.5-0.5,8.7-1.8,12.4-4.4c6.7-4.6,10.2-10.9,9.7-19.2c-0.3-5.3-2.2-10.1-5.6-14.2c-2.3-2.8-5.2-4.7-8.6-5.6
				C131.3,279.8,128.6,279.5,126.1,279.5z M140.2,279.2c1.9-1.9,3.8-3.7,5.6-5.7c5.2-5.7,10.1-11.7,14.7-17.9
				c4.6-6.1,8.7-12.5,12.1-19.4c2.2-4.6,4.2-9.3,5.3-14.3c0.7-3,1.1-6.1,0.9-9.3c-0.1-1.6-0.5-3.2-1.2-4.7c-0.9-1.8-2.4-2.7-4.4-2.8
				c-1.6-0.1-3.1,0.3-4.6,0.9c-1.6,0.7-3,1.6-4.3,2.7c-3.5,2.7-6.3,6.1-8.7,9.7c-3.6,5.3-6.4,11-8.9,16.9c-2.9,7-5.3,14.2-7.6,21.4
				c-2,6.4-3.8,12.8-5.4,19.2c-0.1,0.2-0.1,0.5-0.1,0.7C136,277.2,138.1,278,140.2,279.2z M129.7,275.9c0.1-0.7,0.2-1.3,0.3-2
				c0.4-2.9,0.8-5.8,1.1-8.7c0.4-3.7,0.7-7.4,1.1-11.1c0.2-1.7,0.5-3.3,0.6-5c0.2-5.4,0.4-10.9,0.1-16.3c-0.2-3.6-0.5-7.2-1.2-10.8
				c-0.4-2.1-1-4.2-2.1-6.1c-1.1-1.9-2.6-3.2-4.7-3.8c-0.9-0.3-1.9-0.4-2.9-0.2c-1.3,0.3-2.3,0.9-3.3,1.7c-1.8,1.5-2.9,3.3-3.7,5.5
				c-1.7,4.5-2.1,9.2-2,14c0.1,4.1,0.6,8.1,1.2,12.2c1.6,10,4.5,19.6,8.7,28.8c0.3,0.6,0.5,1.1,0.9,1.7
				C125.6,275.9,127.6,275.9,129.7,275.9z"/>
			<g>
				<path class="st10" d="M119,310.5c-2.5,0-4.7-1.7-5.3-3.7c-0.5-1.8,0.2-3.8,1.8-4.7c2-1.2,4-1.1,6,0c1.7,1,2.6,4.1,1.4,6
					C121.9,309.6,120.5,310.4,119,310.5z"/>
				<path class="st10" d="M119.2,321.3c-2.2-0.1-4.3-0.7-6-2.1c-0.5-0.4-0.9-0.9-1.3-1.5c-0.4-0.7-0.2-1.6,0.4-2.1
					c0.5-0.5,1.3-0.6,2-0.2c0.3,0.2,0.6,0.4,0.9,0.7c1.7,1.4,3.6,2,5.8,1.1c0.3-0.1,0.6-0.2,0.9-0.3c0.9-0.3,1.6-0.1,2,0.5
					c0.4,0.6,0.3,1.5-0.4,2.1c-1.1,1.1-2.4,1.6-4,1.7C119.4,321.3,119.3,321.3,119.2,321.3z"/>
				<g>
					<path class="st10" d="M130.3,291.3c3,0,5.4,1.6,6.2,3.9c0.5,1.4-0.4,2.7-1.8,2.5c-0.6-0.1-1-0.4-1.3-0.9
						c-0.2-0.3-0.4-0.7-0.6-1.1c-1.3-1.8-3.3-1.7-4.5,0.1c-0.3,0.5-0.6,1-1.3,0.8c-0.6-0.1-1-0.7-1-1.5c0-0.9,0.3-1.7,1-2.4
						C128.1,291.9,129.3,291.4,130.3,291.3z"/>
					<path class="st10" d="M113.5,294.8c0,1.2-0.9,1.9-1.8,1.7c-0.5-0.1-1-0.4-1.3-0.7c-1.4-1.6-4.1-0.9-4.9,0.9
						c-0.1,0.1-0.1,0.3-0.2,0.4c-0.5,0.6-1.3,0.5-1.7-0.1c-0.3-0.5-0.4-1-0.3-1.5c0.5-2.1,1.9-3.3,3.9-3.9c2.2-0.6,4.4,0.3,5.6,2.1
						C113.2,294.1,113.4,294.6,113.5,294.8z"/>
				</g>
			</g>
			<g>
				<path class="st10" d="M169.1,224.2c-0.1,2.2-0.6,4.5-1.4,6.8c-1.7,4.9-4.1,9.5-6.8,14c-3.6,6.1-7.8,11.9-12,17.6
					c-1.5,2.1-3.1,4.2-4.7,6.3c-0.4,0.5-0.9,1.1-1.4,1.5c-0.4,0.4-0.8,0.7-1.4,0.4c-0.6-0.3-0.7-0.8-0.7-1.3
					c0.1-0.8,0.2-1.6,0.4-2.3c1.2-4.8,2.6-9.4,4.2-14.1c2.5-7.1,5.1-14.1,8.4-20.9c1.4-2.7,2.9-5.3,4.7-7.7c1-1.4,2.2-2.8,3.6-3.9
					c0.7-0.5,1.5-1,2.3-1.4c1.8-0.7,3.4,0.1,4.2,1.8C168.9,221.8,169.1,222.9,169.1,224.2z M144,264.7c0.1,0,0.1,0.1,0.2,0.1
					c0.2-0.2,0.4-0.5,0.6-0.7c4.1-5.5,7.9-11.1,11.5-16.9c2.6-4.3,5.2-8.5,7.1-13.2c1.2-2.9,2.3-5.8,2.6-8.9c0.1-0.9,0-1.8-0.1-2.7
					c-0.1-0.7-0.5-0.9-1.2-0.6c-0.5,0.2-1,0.6-1.4,0.9c-1.2,1.1-2.2,2.3-3.1,3.7c-2,3-3.7,6.2-5.1,9.5c-3.6,8.4-6.9,16.9-10,25.5
					C144.8,262.5,144.4,263.6,144,264.7z"/>
				<path class="st10" d="M129.5,249.1c0,5-0.4,10-1.1,15c-0.3,2-0.6,4-1,6c-0.1,0.5-0.3,1.1-0.5,1.6c-0.6,1.1-1.7,1.2-2.4,0.2
					c-0.3-0.5-0.6-1.1-0.7-1.6c-1.6-5.2-3.2-10.5-4.3-15.8c-0.8-3.7-1.3-7.4-1.7-11.2c-0.3-3-0.5-5.9-0.3-8.9
					c0.1-2.1,0.4-4.2,1.1-6.2c0.3-1,0.8-1.8,1.5-2.6c1.4-1.4,3.1-1.4,4.4,0c0.7,0.7,1.2,1.5,1.6,2.4c1.2,2.4,1.8,4.9,2.3,7.5
					C129.2,240,129.5,244.5,129.5,249.1z M125.3,267.5c0.1,0,0.1,0,0.2,0c0.1-0.5,0.2-1,0.2-1.6c0.3-3.9,0.7-7.8,0.9-11.7
					c0.3-6,0.1-11.9-0.9-17.9c-0.4-2.5-0.9-4.9-1.9-7.2c-0.3-0.7-0.6-1.4-1.1-2c-0.5-0.6-0.9-0.6-1.3,0c-0.4,0.6-0.7,1.3-1,2
					c-0.6,1.8-0.7,3.7-0.7,5.6c-0.1,3.6,0.3,7.2,0.7,10.8c0.9,7.1,2.5,14.2,4.5,21.1C125.1,266.9,125.2,267.2,125.3,267.5z"/>
			</g>
		</g>
		<g>
			<path class="st13" d="M126.1,279.5c2.5,0,5.2,0.2,8,1c3.5,1,6.3,2.8,8.6,5.6c3.4,4.1,5.2,8.9,5.6,14.2c0.5,8.3-3,14.6-9.7,19.2
				c-3.7,2.6-7.9,3.9-12.4,4.4c-6.1,0.6-11.9-0.3-17.4-3.1c-3.1-1.6-5.8-3.6-8.1-6.2c-2.3-2.6-3.8-5.6-4.5-9
				c-0.7-3.6-0.3-7,1.4-10.3c2.8-5.6,6.9-10,12.4-13.1c1.7-0.9,3.6-1.3,5.5-1.7C118.8,279.9,122.3,279.5,126.1,279.5z M119,310.5
				c1.5-0.1,2.9-0.9,3.9-2.5c1.2-1.9,0.3-5.1-1.4-6c-2-1.1-4-1.2-6,0c-1.6,1-2.3,2.9-1.8,4.7C114.3,308.8,116.6,310.5,119,310.5z
				 M138.7,312.9c0.5,0,1.3-0.2,2-0.7c1.3-0.8,1.8-2.1,2-3.6c0.2-1.8-0.9-3.3-2.7-3.6c-1.7-0.2-3.4,0-4.8,1.1
				c-0.2,0.2-0.4,0.4-0.6,0.6c-1.2,1.3-1.2,2.9-0.1,4.3C135.4,312.2,136.7,312.9,138.7,312.9z M119.2,321.3c0.1,0,0.3,0,0.4,0
				c1.5-0.1,2.9-0.6,4-1.7c0.6-0.6,0.8-1.5,0.4-2.1c-0.4-0.6-1.1-0.8-2-0.5c-0.3,0.1-0.6,0.2-0.9,0.3c-2.2,0.9-4,0.3-5.8-1.1
				c-0.3-0.2-0.6-0.5-0.9-0.7c-0.7-0.4-1.5-0.3-2,0.2c-0.6,0.5-0.8,1.3-0.4,2.1c0.3,0.6,0.8,1.1,1.3,1.5
				C114.9,320.6,116.9,321.2,119.2,321.3z M99.9,307.8c-0.2,2.5,1.9,3.9,3.6,3.8c2.8-0.2,3.8-1.6,3.8-3.9c0-1.8-1.9-3.4-4-3.3
				C101.2,304.4,99.8,305.8,99.9,307.8z M130.3,291.3c-1,0-2.2,0.5-3.2,1.5c-0.7,0.6-1,1.4-1,2.4c0,0.8,0.4,1.4,1,1.5
				c0.7,0.1,1-0.3,1.3-0.8c1.2-1.8,3.2-1.9,4.5-0.1c0.2,0.3,0.4,0.7,0.6,1.1c0.3,0.5,0.7,0.8,1.3,0.9c1.4,0.2,2.3-1.1,1.8-2.5
				C135.6,293,133.2,291.3,130.3,291.3z M113.5,294.8c-0.1-0.2-0.3-0.7-0.5-1.1c-1.3-1.8-3.5-2.7-5.6-2.1c-2,0.5-3.5,1.7-3.9,3.9
				c-0.1,0.6,0,1.1,0.3,1.5c0.4,0.6,1.2,0.7,1.7,0.1c0.1-0.1,0.2-0.3,0.2-0.4c0.7-1.8,3.5-2.5,4.9-0.9c0.3,0.4,0.8,0.6,1.3,0.7
				C112.6,296.7,113.5,296,113.5,294.8z"/>
			<g>
				<path class="st13" d="M140.2,279.2c-2.1-1.2-4.2-2-6.5-2.6c0-0.3,0-0.5,0.1-0.7c1.6-6.5,3.4-12.9,5.4-19.2
					c2.3-7.2,4.6-14.4,7.6-21.4c2.5-5.9,5.3-11.6,8.9-16.9c2.5-3.6,5.3-7,8.7-9.7c1.3-1.1,2.7-2,4.3-2.7c1.5-0.6,3-1,4.6-0.9
					c2,0.1,3.5,1,4.4,2.8c0.7,1.5,1.1,3.1,1.2,4.7c0.3,3.1-0.2,6.2-0.9,9.3c-1.1,5-3.1,9.7-5.3,14.3c-3.3,6.9-7.5,13.3-12.1,19.4
					c-4.6,6.2-9.5,12.2-14.7,17.9C144.1,275.4,142.1,277.3,140.2,279.2z M169.1,224.2c0-1.3-0.2-2.4-0.5-3.2
					c-0.8-1.8-2.4-2.5-4.2-1.8c-0.8,0.3-1.6,0.8-2.3,1.4c-1.4,1.1-2.5,2.5-3.6,3.9c-1.8,2.4-3.3,5-4.7,7.7c-3.4,6.7-6,13.8-8.4,20.9
					c-1.6,4.6-3.1,9.3-4.2,14.1c-0.2,0.8-0.3,1.5-0.4,2.3c-0.1,0.5,0.1,1.1,0.7,1.3c0.6,0.3,1,0,1.4-0.4c0.5-0.5,1-1,1.4-1.5
					c1.6-2.1,3.1-4.2,4.7-6.3c4.2-5.7,8.4-11.5,12-17.6c2.6-4.5,5.1-9,6.8-14C168.5,228.7,169,226.4,169.1,224.2z"/>
				<path class="st13" d="M129.7,275.9c-2.1,0-4.1,0-6.1,0c-0.3-0.6-0.6-1.2-0.9-1.7c-4.2-9.2-7.1-18.8-8.7-28.8
					c-0.7-4-1.2-8.1-1.2-12.2c-0.1-4.8,0.3-9.5,2-14c0.8-2.1,2-4,3.7-5.5c1-0.8,2.1-1.4,3.3-1.7c1-0.2,1.9-0.1,2.9,0.2
					c2.1,0.6,3.7,1.9,4.7,3.8c1.1,1.9,1.7,4,2.1,6.1c0.7,3.6,1,7.2,1.2,10.8c0.3,5.4,0.2,10.9-0.1,16.3c-0.1,1.7-0.4,3.3-0.6,5
					c-0.4,3.7-0.7,7.4-1.1,11.1c-0.3,2.9-0.7,5.8-1.1,8.7C129.9,274.6,129.8,275.2,129.7,275.9z M129.5,249.1
					c0-4.6-0.3-9.1-1.1-13.6c-0.5-2.6-1.1-5.2-2.3-7.5c-0.4-0.9-1-1.7-1.6-2.4c-1.3-1.4-3-1.3-4.4,0c-0.7,0.7-1.2,1.6-1.5,2.6
					c-0.7,2-1,4.1-1.1,6.2c-0.2,3,0,6,0.3,8.9c0.4,3.8,0.9,7.5,1.7,11.2c1.1,5.3,2.7,10.6,4.3,15.8c0.2,0.6,0.4,1.1,0.7,1.6
					c0.7,1,1.8,0.9,2.4-0.2c0.3-0.5,0.4-1,0.5-1.6c0.4-2,0.7-4,1-6C129.1,259.1,129.5,254.1,129.5,249.1z"/>
			</g>
			<g>
				<path class="st9" d="M144,264.7c0.4-1.1,0.7-2.2,1.1-3.3c3.1-8.6,6.4-17.1,10-25.5c1.4-3.3,3.1-6.5,5.1-9.5
					c0.9-1.3,1.9-2.6,3.1-3.7c0.4-0.4,0.9-0.7,1.4-0.9c0.6-0.3,1.1-0.1,1.2,0.6c0.1,0.9,0.2,1.8,0.1,2.7c-0.3,3.1-1.4,6-2.6,8.9
					c-2,4.6-4.5,8.9-7.1,13.2c-3.6,5.8-7.4,11.5-11.5,16.9c-0.2,0.2-0.4,0.5-0.6,0.7C144.2,264.8,144.1,264.8,144,264.7z"/>
				<path class="st9" d="M125.3,267.5c-0.1-0.3-0.2-0.6-0.3-0.9c-1.9-6.9-3.5-13.9-4.5-21.1c-0.5-3.6-0.8-7.2-0.7-10.8
					c0-1.9,0.1-3.8,0.7-5.6c0.2-0.7,0.6-1.4,1-2c0.4-0.7,0.9-0.6,1.3,0c0.4,0.6,0.8,1.3,1.1,2c1,2.3,1.5,4.7,1.9,7.2
					c1,5.9,1.2,11.9,0.9,17.9c-0.2,3.9-0.6,7.8-0.9,11.7c0,0.5-0.2,1-0.2,1.6C125.4,267.5,125.3,267.5,125.3,267.5z"/>
			</g>
		</g>
	</g>
</g>
</svg>
